<?xml version="1.0"?>
<svg width="480" height="720" xmlns="http://www.w3.org/2000/svg" xmlns:svg="http://www.w3.org/2000/svg" xmlns:xlink="http://www.w3.org/1999/xlink">
 <defs>
  <symbol height="583" id="svg_2" viewBox="0 0 223 583" width="223" xmlns="http://www.w3.org/2000/svg">
   <path d="m201.86,16.99c-9.66,12.41 -7.71,22.96 -7.71,38.34c0,6.86 2.31,15.65 7.48,20.16c2.03,1.78 5.32,4.75 8.14,4.25c0.32,5.59 1.3,6.16 -2.16,9.38c-3.13,2.92 -4.48,4.71 -5.11,9.24c-0.77,5.52 -1.21,8.44 -4.42,12.95c-3.85,5.4 -5.52,7.55 -7.37,13.76c-1.59,5.38 -4.66,11.22 -5.24,16.75c-0.53,5.15 0.48,7.66 -2.92,11.8c-1.8,2.21 -3.79,4.1 -6.42,5.22c-3.16,1.34 -4.58,0.75 -6.11,3.64c-1.19,2.22 -1.32,6.86 -1.2,9.33c0.76,14.72 -5.93,32.22 -7.58,46.92c-0.7,6.25 -1.47,12.48 -2.79,18.63c-1.02,4.79 -3.75,9.75 -4.34,14.48c-1.35,10.9 -1.63,22.04 -3.3,33.16c-1.58,10.45 -2.48,21.42 -5.84,31.5c-0.91,2.73 -1.88,4.84 -2.11,7.87c-0.89,11.52 3.17,22.58 -0.63,34.07c-2.45,7.39 -8.96,12.13 -8.72,20.4c8.6,11.86 -12.67,46.61 -21.06,55.52c-4.65,4.94 -8.49,7.87 -12.89,11.57c-6.52,5.49 -4.5,1.79 -7.04,9.98c-1.43,4.6 -0.56,9.37 -3.05,14.01c-2.84,5.32 -9,9.32 -12.44,14.47c-2.58,3.86 -4.12,8.22 -7.28,11.67c-5.51,6.03 -18.5,10.21 -22.18,17.63c-2.97,5.99 -0.76,17.66 -0.71,24.29c0.12,16.04 -5.49,27.78 -8.1,43.27c-0.03,0.19 -0.06,0.38 -0.08,0.57c-6.11,1.08 -9.21,-0.94 -14.22,-5.49c-3.16,-2.87 -10.09,-8 -12.4,-11.12c-3.88,-5.23 -3.47,-20.16 -6.01,-26.25c-7.04,-3.45 -3.24,-7.73 -3.48,-14.31c-0.32,-9.08 -5.15,-11.23 1.37,-19.52c7.86,-9.98 26.45,-12.57 25.18,-27.83c-0.65,-7.73 -6.21,-13.24 -12.87,-17.55c-5.24,-3.39 -7.62,-9.82 -5.65,-15.74c0.44,-1.31 0.83,-3.06 1.26,-5.51c1.97,-10.95 1.59,-21.75 4.78,-32.55c2.36,-7.96 4.96,-14.84 9.86,-21.28c4.55,-5.99 11.34,-9.94 13.47,-17.5c1.21,-4.27 -1,-9.23 0.21,-13.52c0.49,-1.73 1.26,-3.4 2.21,-5.01c3.09,-5.25 8.09,-9.9 11.31,-14.58c4.13,-6 4.49,-11.01 6.58,-16.49c6.94,-18.19 21.58,-29.82 25.12,-50.05c2.17,-12.42 1.87,-24.91 4.32,-37.52c1.24,-6.44 0.88,-13.39 3.17,-19.3c3.15,-8.11 9.46,-10.19 10.11,-18.77c0.48,-6.37 -2.87,-13.61 -1.74,-19.64c2.15,-11.56 10.76,-20.49 11.52,-33.69c-10.73,-11.22 -13.42,-36.32 -5.39,-50.43c0.34,-0.61 0.71,-1.21 1.1,-1.78c3.75,-5.49 10.99,-8.53 15.28,-13.64c3.26,-3.87 4.8,-7.62 7.09,-11.89c5.16,-9.64 8.54,-9.17 19.26,-14.56c13.48,-6.78 22.01,-14.75 31.99,-25.11c10.41,-10.79 25.57,-19.69 40.73,-21.19c-3.41,6.72 -16.49,11.18 -20.97,16.95l-0.01,0.04z" fill="white" fill-opacity="0.5"/>
  </symbol>
  <symbol height="401" id="svg_8" viewBox="0 0 203 401" width="203" xmlns="http://www.w3.org/2000/svg">
   <path d="m200.05,366.62c0.17,1.38 1.36,30.57 1.04,31.13c-4.55,7.93 -14.15,-5.28 -19.5,-6.89c-9.49,-2.86 -13.55,-0.6 -15.56,-13.88c-2.35,-15.41 0.87,-21.15 -8.89,-33.84c-17.44,-22.7 -36.68,-41.31 -62.2,-53.27c-14.43,-6.76 -41,-20.91 -46.9,-37.33c-2.21,-6.15 1.02,-10.81 0.32,-17.79c-0.59,-5.91 -3.49,-11.63 -5.92,-16.71c-5.66,-11.82 -13.97,-21.46 -22.37,-31.16c-6.06,-6.98 -17.31,-17.42 -19.37,-25.88c-2.45,-10.05 2.27,-24 3.12,-34.32c2.02,-24.42 2.6,-49.46 6.38,-72.97c3.14,-19.52 13.65,-36.14 23.18,-52.99c21.14,1.34 41.99,4.3 62.48,10.67c14.2,-7.75 20.65,7.34 25.7,17.5c1.73,3.45 4.36,10.38 7.43,12.68c4.92,3.69 15.57,2.82 21.48,5.98c11.52,6.16 9.27,16.73 17.82,23.77c9.32,7.67 21.29,-0.96 29.66,8.33c4.97,5.53 2.03,10.36 4.46,16.04c-0.96,1.6 -1.73,3.27 -2.21,5.01c-1.21,4.3 1,9.25 -0.21,13.52c-2.13,7.56 -8.92,11.51 -13.47,17.5c-4.9,6.44 -7.49,13.32 -9.86,21.28c-3.2,10.8 -2.82,21.6 -4.78,32.55c-0.44,2.45 -0.83,4.2 -1.26,5.51c-1.97,5.91 0.41,12.35 5.65,15.74c6.66,4.31 12.22,9.82 12.87,17.55c1.27,15.26 -17.31,17.85 -25.18,27.83c-6.53,8.29 -1.69,10.44 -1.37,19.52c0.24,6.58 -3.56,10.85 3.48,14.31c2.54,6.09 2.12,21.02 6.01,26.25c2.3,3.12 9.24,8.25 12.4,11.12c5.01,4.54 8.1,6.57 14.22,5.49c-1.73,12.42 8.08,25.81 1.38,37.78l-0.03,-0.03z" fill="white" fill-opacity="0.5"/>
  </symbol>
  <symbol height="338" id="svg_11" viewBox="0 0 240 338" width="240" xmlns="http://www.w3.org/2000/svg">
   <path d="m230.01,180.97c-0.65,8.57 -6.96,10.66 -10.11,18.77c-2.3,5.91 -1.93,12.87 -3.17,19.3c-2.45,12.61 -2.15,25.1 -4.32,37.52c-3.54,20.23 -18.18,31.86 -25.12,50.05c-2.09,5.48 -2.45,10.49 -6.58,16.49c-3.22,4.68 -8.22,9.33 -11.31,14.58c-2.43,-5.68 0.51,-10.51 -4.46,-16.04c-8.37,-9.29 -20.34,-0.67 -29.66,-8.33c-8.55,-7.04 -6.3,-17.6 -17.82,-23.77c-5.91,-3.16 -16.56,-2.29 -21.48,-5.98c-3.06,-2.3 -5.7,-9.23 -7.43,-12.68c-5.05,-10.15 -11.5,-25.24 -25.7,-17.5c-20.49,-6.38 -41.34,-9.33 -62.48,-10.67c1.52,-2.69 3.01,-5.39 4.44,-8.1c20.32,-9.96 33.08,-43.05 41.06,-63.02c6.29,-15.78 13.39,-31.56 19.93,-46.97c6.15,-14.52 12.12,-29.17 23.96,-39.83c9.85,-8.87 30.52,-22.58 34.54,-35.73c5.55,-18.21 11.31,-35.44 23.47,-48.69c0.03,0.04 0.07,0.09 0.1,0.13c3.58,4.66 6.91,6.64 12.19,9.66c13.53,7.72 26.58,18.48 37.08,29.97c5.06,5.53 8.66,14.75 15.13,18.69c5.92,3.6 7.38,2.16 11.21,6.55c1.72,1.97 1.79,5.43 4.01,7.77c1.83,1.93 4.23,3.18 6.88,4.06c-8.02,14.11 -5.34,39.21 5.39,50.43c-0.76,13.2 -9.37,22.12 -11.52,33.69c-1.12,6.04 2.22,13.27 1.74,19.64l0.03,0.01z" fill="white" fill-opacity="0.5"/>
  </symbol>
 </defs>
 <g class="layer">
  <title>Layer 1</title>
  <path d="m424.05,61.59c-15.15,1.5 -30.32,10.4 -40.73,21.19c-9.99,10.37 -18.51,18.33 -31.99,25.11c-10.71,5.39 -14.09,4.92 -19.26,14.56c-2.29,4.27 -3.82,8.02 -7.09,11.89c-4.3,5.12 -11.53,8.16 -15.28,13.65c-0.39,0.57 -0.76,1.16 -1.1,1.77c-2.65,-0.88 -5.06,-2.13 -6.88,-4.05c-2.22,-2.36 -2.3,-5.8 -4.01,-7.77c-3.82,-4.4 -5.29,-2.95 -11.21,-6.56c-6.47,-3.93 -10.07,-13.16 -15.13,-18.69c-10.5,-11.49 -23.55,-22.25 -37.08,-29.97c-5.29,-3.02 -8.62,-5 -12.19,-9.66c-0.03,-0.04 -0.07,-0.09 -0.1,-0.13c3.49,-3.82 7.53,-7.29 12.23,-10.38c11.18,-7.32 20.63,-13.32 33.41,-17.59c8.18,-2.73 28.1,-6.02 33.8,-13.57c2.26,-3 3.6,-10.48 5.39,-12.41c3.43,-3.67 9.66,-4.23 13.61,-6.73c3.54,-2.25 4.92,-6.28 9.32,-7.79c9.76,-3.35 6.06,-0.47 11.78,3.77c4.93,3.65 9.37,9.47 14.28,13.58c2.12,1.78 5.62,2.21 7.77,3.91c15.61,12.34 11.64,14.04 32.5,14.09c8.24,6.27 18.87,12.61 28.65,17.1c0.34,1.69 0.05,3.24 -0.69,4.68z" fill="white" fill-opacity="0.5" id="svg_1"/>
  <use id="svg_3" transform="matrix(1.00936, 0, 0, 1.00936, 1712.87, -2714.22)" x="-1499.69" xlink:href="#svg_2" y="2750.15"/>
  <use id="svg_9" transform="matrix(1.01295, 0, 0, 1.01295, 319.16, -151.636)" x="-276.99" xlink:href="#svg_8" y="459.01"/>
  <use id="svg_12" transform="matrix(0.99314, 0, 0, 0.99314, 161.415, -8.36922)" x="-86.82" xlink:href="#svg_11" y="82.29"/>
 </g>
</svg>