<svg width="30" height="31" viewBox="0 0 30 31" fill="none" xmlns="http://www.w3.org/2000/svg">
<g clip-path="url(#clip0_441_7042)">
<path d="M30.0005 14.5625C30.0007 15.4594 29.7436 16.3374 29.2597 17.0925C28.7758 17.8476 28.0854 18.448 27.2705 18.8225C26.944 18.2494 26.5331 17.7286 26.0518 17.2775C26.7719 17.0813 27.3845 16.6072 27.7549 15.9593C28.1254 15.3114 28.2233 14.5429 28.0271 13.8228C27.8309 13.1028 27.3567 12.4901 26.7089 12.1197C26.061 11.7492 25.2925 11.6513 24.5724 11.8475C24.4428 11.8826 24.3072 11.8895 24.1747 11.8677C24.0423 11.8459 23.916 11.7958 23.8046 11.721C23.6931 11.6462 23.599 11.5482 23.5286 11.4339C23.4583 11.3195 23.4133 11.1914 23.3968 11.0581C23.2642 9.98438 22.8248 8.97164 22.1311 8.14131C21.4375 7.31098 20.5192 6.69831 19.4861 6.37673C18.4531 6.05514 17.3493 6.0383 16.3069 6.32821C15.2646 6.61813 14.3279 7.20249 13.6093 8.01127C12.8081 7.9745 12.0054 8.02986 11.2168 8.17627C11.9358 6.85217 13.0368 5.7752 14.3765 5.08556C15.7161 4.39592 17.2324 4.12555 18.7278 4.30965C20.2233 4.49374 21.6287 5.12378 22.7611 6.11775C23.8934 7.11171 24.7004 8.42356 25.0768 9.88252C25.7113 9.8505 26.3457 9.9478 26.9415 10.1685C27.5373 10.3892 28.0819 10.7288 28.5424 11.1665C29.0029 11.6042 29.3697 12.1309 29.6203 12.7147C29.871 13.2985 30.0003 13.9272 30.0005 14.5625Z" fill="#858585"/>
<path d="M13.1253 9.875C15.2011 9.8746 17.2041 10.6394 18.7514 12.023C20.2986 13.4067 21.2816 15.3121 21.5122 17.375H21.5628C22.806 17.375 23.9983 17.8689 24.8774 18.7479C25.7565 19.627 26.2503 20.8193 26.2503 22.0625C26.2503 23.3057 25.7565 24.498 24.8774 25.3771C23.9983 26.2561 22.806 26.75 21.5628 26.75H5.62535C4.17289 26.7511 2.77632 26.1903 1.72795 25.1851C0.679591 24.1798 0.060716 22.808 0.000874401 21.3568C-0.0589672 19.9055 0.444864 18.4874 1.4069 17.3993C2.36894 16.3111 3.71461 15.6372 5.16222 15.5188C5.74164 13.8692 6.81897 12.4403 8.2454 11.4293C9.67184 10.4183 11.377 9.87523 13.1253 9.875ZM19.6878 18.3125C19.689 16.7141 19.1067 15.1702 18.0503 13.9707C16.9939 12.7712 15.536 11.9984 13.9503 11.7975C12.3645 11.5966 10.76 11.9813 9.43781 12.8795C8.11561 13.7776 7.16667 15.1275 6.7691 16.6756C6.7153 16.8852 6.5907 17.0696 6.41641 17.1978C6.24213 17.3259 6.02889 17.3899 5.81285 17.3787C5.31477 17.3566 4.81729 17.4341 4.34949 17.6065C3.8817 17.779 3.45298 18.0429 3.08843 18.383C2.72388 18.7231 2.4308 19.1325 2.22635 19.5872C2.02189 20.042 1.91016 20.5329 1.8977 21.0313C1.88523 21.5297 1.97228 22.0256 2.15374 22.49C2.33521 22.9543 2.60745 23.3779 2.95454 23.7358C3.30164 24.0937 3.71662 24.3788 4.17521 24.5744C4.6338 24.77 5.12679 24.8722 5.62535 24.875H21.5628C21.9616 24.8741 22.3557 24.7884 22.7188 24.6235C23.0819 24.4587 23.4059 24.2185 23.6691 23.919C23.9323 23.6194 24.1288 23.2673 24.2456 22.886C24.3624 22.5046 24.3967 22.1029 24.3463 21.7073C24.2959 21.3117 24.162 20.9313 23.9534 20.5914C23.7448 20.2515 23.4664 19.9599 23.1365 19.7358C22.8066 19.5118 22.4328 19.3605 22.0399 19.2919C21.6471 19.2233 21.2441 19.2391 20.8578 19.3381C20.7182 19.3739 20.5722 19.377 20.4312 19.3471C20.2902 19.3173 20.158 19.2554 20.0448 19.1661C19.9316 19.0769 19.8405 18.9628 19.7786 18.8326C19.7167 18.7024 19.6856 18.5597 19.6878 18.4156V18.3125Z" fill="#858585"/>
</g>
<defs>
<clipPath id="clip0_441_7042">
<rect width="30" height="30" fill="white" transform="translate(0 0.5)"/>
</clipPath>
</defs>
</svg>
