<svg width="30" height="31" viewBox="0 0 30 31" fill="none" xmlns="http://www.w3.org/2000/svg">
<g clip-path="url(#clip0_441_7045)">
<path d="M14.3363 9.60125C14.4233 9.68856 14.5268 9.75782 14.6407 9.80509C14.7546 9.85235 14.8767 9.87668 15 9.87668C15.1233 9.87668 15.2454 9.85235 15.3593 9.80509C15.4732 9.75782 15.5767 9.68856 15.6637 9.60125L18.4762 6.78875C18.5634 6.70159 18.6326 6.59811 18.6797 6.48422C18.7269 6.37033 18.7512 6.24827 18.7512 6.125C18.7512 6.00173 18.7269 5.87967 18.6797 5.76578C18.6326 5.65189 18.5634 5.54841 18.4762 5.46125C18.3891 5.37408 18.2856 5.30494 18.1717 5.25777C18.0578 5.2106 17.9358 5.18632 17.8125 5.18632C17.6892 5.18632 17.5672 5.2106 17.4533 5.25777C17.3394 5.30494 17.2359 5.37408 17.1488 5.46125L15.9375 6.67438V3.3125C15.9375 3.06386 15.8387 2.8254 15.6629 2.64959C15.4871 2.47377 15.2486 2.375 15 2.375C14.7514 2.375 14.5129 2.47377 14.3371 2.64959C14.1613 2.8254 14.0625 3.06386 14.0625 3.3125V6.67438L12.8512 5.46125C12.7641 5.37408 12.6606 5.30494 12.5467 5.25777C12.4328 5.2106 12.3108 5.18632 12.1875 5.18632C12.0642 5.18632 11.9422 5.2106 11.8283 5.25777C11.7144 5.30494 11.6109 5.37408 11.5238 5.46125C11.4366 5.54841 11.3674 5.65189 11.3203 5.76578C11.2731 5.87967 11.2488 6.00173 11.2488 6.125C11.2488 6.24827 11.2731 6.37033 11.3203 6.48422C11.3674 6.59811 11.4366 6.70159 11.5238 6.78875L14.3363 9.60125ZM4.39313 8.645C4.56893 8.46925 4.80735 8.37051 5.05594 8.37051C5.30453 8.37051 5.54294 8.46925 5.71875 8.645L8.37 11.2944C8.54077 11.4712 8.63527 11.708 8.63313 11.9538C8.631 12.1996 8.5324 12.4348 8.35858 12.6086C8.18476 12.7824 7.94962 12.881 7.70381 12.8831C7.458 12.8853 7.22119 12.7908 7.04437 12.62L4.39313 9.96875C4.21737 9.79294 4.11864 9.55453 4.11864 9.30594C4.11864 9.05735 4.21737 8.82081 4.39313 8.645ZM25.6069 8.645C25.7821 8.82073 25.8804 9.05874 25.8804 9.30688C25.8804 9.55501 25.7821 9.79302 25.6069 9.96875L22.9556 12.62C22.8691 12.7095 22.7657 12.781 22.6513 12.8301C22.5369 12.8792 22.4139 12.9051 22.2894 12.9062C22.165 12.9073 22.0415 12.8835 21.9263 12.8364C21.8111 12.7893 21.7064 12.7196 21.6184 12.6316C21.5304 12.5436 21.4607 12.4389 21.4136 12.3237C21.3665 12.2085 21.3427 12.085 21.3438 11.9606C21.3449 11.8361 21.3708 11.7131 21.4199 11.5987C21.469 11.4843 21.5405 11.3809 21.63 11.2944L24.2812 8.64313C24.4571 8.46737 24.6955 8.36864 24.9441 8.36864C25.1927 8.36864 25.4311 8.46925 25.6069 8.645ZM21.9544 22.0625C22.4141 20.9241 22.5873 19.6902 22.4588 18.4692C22.3303 17.2482 21.904 16.0775 21.2174 15.0597C20.5308 14.0419 19.6048 13.2083 18.5207 12.6319C17.4367 12.0556 16.2277 11.7542 15 11.7542C13.7723 11.7542 12.5633 12.0556 11.4793 12.6319C10.3952 13.2083 9.46922 14.0419 8.78259 15.0597C8.09596 16.0775 7.66968 17.2482 7.54119 18.4692C7.41269 19.6902 7.58591 20.9241 8.04562 22.0625H0.9375C0.68886 22.0625 0.450403 22.1613 0.274587 22.3371C0.0987721 22.5129 0 22.7514 0 23C0 23.2486 0.0987721 23.4871 0.274587 23.6629C0.450403 23.8387 0.68886 23.9375 0.9375 23.9375H29.0625C29.3111 23.9375 29.5496 23.8387 29.7254 23.6629C29.9012 23.4871 30 23.2486 30 23C30 22.7514 29.9012 22.5129 29.7254 22.3371C29.5496 22.1613 29.3111 22.0625 29.0625 22.0625H21.9562H21.9544ZM0 19.25C0 19.0014 0.0987721 18.7629 0.274587 18.5871C0.450403 18.4113 0.68886 18.3125 0.9375 18.3125H4.6875C4.93614 18.3125 5.1746 18.4113 5.35041 18.5871C5.52623 18.7629 5.625 19.0014 5.625 19.25C5.625 19.4986 5.52623 19.7371 5.35041 19.9129C5.1746 20.0887 4.93614 20.1875 4.6875 20.1875H0.9375C0.68886 20.1875 0.450403 20.0887 0.274587 19.9129C0.0987721 19.7371 0 19.4986 0 19.25ZM24.375 19.25C24.375 19.0014 24.4738 18.7629 24.6496 18.5871C24.8254 18.4113 25.0639 18.3125 25.3125 18.3125H29.0625C29.3111 18.3125 29.5496 18.4113 29.7254 18.5871C29.9012 18.7629 30 19.0014 30 19.25C30 19.4986 29.9012 19.7371 29.7254 19.9129C29.5496 20.0887 29.3111 20.1875 29.0625 20.1875H25.3125C25.0639 20.1875 24.8254 20.0887 24.6496 19.9129C24.4738 19.7371 24.375 19.4986 24.375 19.25Z" fill="#858585"/>
</g>
<defs>
<clipPath id="clip0_441_7045">
<rect width="30" height="30" fill="white" transform="translate(0 0.5)"/>
</clipPath>
</defs>
</svg>
