<svg width="30" height="31" viewBox="0 0 30 31" fill="none" xmlns="http://www.w3.org/2000/svg">
<g clip-path="url(#clip0_441_7051)">
<path d="M0.0672367 6.71368C0.159775 6.48297 0.340145 6.29846 0.56869 6.20072C0.797235 6.10297 1.05524 6.09999 1.28599 6.19243L4.58036 7.51055C5.2508 7.77868 5.99868 7.77868 6.66911 7.51055L8.57036 6.7493C9.68794 6.30226 10.9347 6.30226 12.0522 6.7493L13.9554 7.51055C14.6258 7.77868 15.3737 7.77868 16.0441 7.51055L17.9454 6.7493C19.0629 6.30226 20.3097 6.30226 21.4272 6.7493L23.3304 7.51055C24.0008 7.77868 24.7487 7.77868 25.4191 7.51055L28.7135 6.19243C28.8283 6.14361 28.9517 6.1182 29.0764 6.11768C29.2012 6.11717 29.3248 6.14156 29.44 6.18942C29.5552 6.23728 29.6597 6.30766 29.7474 6.39642C29.835 6.48519 29.9041 6.59055 29.9505 6.70635C29.9969 6.82215 30.0198 6.94604 30.0177 7.07078C30.0156 7.19552 29.9887 7.31859 29.9384 7.43277C29.8882 7.54696 29.8156 7.64997 29.7251 7.73577C29.6345 7.82157 29.5277 7.88842 29.411 7.93243L26.1147 9.25055C24.9972 9.69759 23.7504 9.69759 22.6329 9.25055L20.7316 8.4893C20.0612 8.22117 19.3133 8.22117 18.6429 8.4893L16.7397 9.25055C15.6222 9.69759 14.3754 9.69759 13.2579 9.25055L11.3566 8.4893C10.6862 8.22117 9.9383 8.22117 9.26786 8.4893L7.36474 9.25055C6.24716 9.69759 5.00044 9.69759 3.88286 9.25055L0.588487 7.93243C0.357784 7.83989 0.173274 7.65952 0.0755274 7.43097C-0.0222194 7.20243 -0.0252016 6.94442 0.0672367 6.71368ZM0.0672367 12.3387C0.159775 12.108 0.340145 11.9235 0.56869 11.8257C0.797235 11.728 1.05524 11.725 1.28599 11.8174L4.58036 13.1356C5.2508 13.4037 5.99868 13.4037 6.66911 13.1356L8.57036 12.3743C9.68794 11.9273 10.9347 11.9273 12.0522 12.3743L13.9554 13.1356C14.6258 13.4037 15.3737 13.4037 16.0441 13.1356L17.9454 12.3743C19.0629 11.9273 20.3097 11.9273 21.4272 12.3743L23.3304 13.1356C24.0008 13.4037 24.7487 13.4037 25.4191 13.1356L28.7135 11.8174C28.8283 11.7686 28.9517 11.7432 29.0764 11.7427C29.2012 11.7422 29.3248 11.7666 29.44 11.8144C29.5552 11.8623 29.6597 11.9327 29.7474 12.0214C29.835 12.1102 29.9041 12.2156 29.9505 12.3314C29.9969 12.4471 30.0198 12.571 30.0177 12.6958C30.0156 12.8205 29.9887 12.9436 29.9384 13.0578C29.8882 13.172 29.8156 13.275 29.7251 13.3608C29.6345 13.4466 29.5277 13.5134 29.411 13.5574L26.1147 14.8756C24.9972 15.3226 23.7504 15.3226 22.6329 14.8756L20.7316 14.1143C20.0612 13.8462 19.3133 13.8462 18.6429 14.1143L16.7397 14.8756C15.6222 15.3226 14.3754 15.3226 13.2579 14.8756L11.3566 14.1143C10.6862 13.8462 9.9383 13.8462 9.26786 14.1143L7.36474 14.8756C6.24716 15.3226 5.00044 15.3226 3.88286 14.8756L0.588487 13.5574C0.357784 13.4649 0.173274 13.2845 0.0755274 13.056C-0.0222194 12.8274 -0.0252016 12.5694 0.0672367 12.3387ZM0.0672367 17.9637C0.159775 17.733 0.340145 17.5485 0.56869 17.4507C0.797235 17.353 1.05524 17.35 1.28599 17.4424L4.58036 18.7606C5.2508 19.0287 5.99868 19.0287 6.66911 18.7606L8.57036 17.9993C9.68794 17.5523 10.9347 17.5523 12.0522 17.9993L13.9554 18.7606C14.6258 19.0287 15.3737 19.0287 16.0441 18.7606L17.9454 17.9993C19.0629 17.5523 20.3097 17.5523 21.4272 17.9993L23.3304 18.7606C24.0008 19.0287 24.7487 19.0287 25.4191 18.7606L28.7135 17.4424C28.8283 17.3936 28.9517 17.3682 29.0764 17.3677C29.2012 17.3672 29.3248 17.3916 29.44 17.4394C29.5552 17.4873 29.6597 17.5577 29.7474 17.6464C29.835 17.7352 29.9041 17.8406 29.9505 17.9564C29.9969 18.0721 30.0198 18.196 30.0177 18.3208C30.0156 18.4455 29.9887 18.5686 29.9384 18.6828C29.8882 18.797 29.8156 18.9 29.7251 18.9858C29.6345 19.0716 29.5277 19.1384 29.411 19.1824L26.1147 20.5006C24.9972 20.9476 23.7504 20.9476 22.6329 20.5006L20.7316 19.7393C20.0612 19.4712 19.3133 19.4712 18.6429 19.7393L16.7397 20.5006C15.6222 20.9476 14.3754 20.9476 13.2579 20.5006L11.3566 19.7393C10.6862 19.4712 9.9383 19.4712 9.26786 19.7393L7.36474 20.5006C6.24716 20.9476 5.00044 20.9476 3.88286 20.5006L0.588487 19.1824C0.357784 19.0899 0.173274 18.9095 0.0755274 18.681C-0.0222194 18.4524 -0.0252016 18.1944 0.0672367 17.9637ZM0.0672367 23.5887C0.159775 23.358 0.340145 23.1735 0.56869 23.0757C0.797235 22.978 1.05524 22.975 1.28599 23.0674L4.58036 24.3856C5.2508 24.6537 5.99868 24.6537 6.66911 24.3856L8.57036 23.6243C9.68794 23.1773 10.9347 23.1773 12.0522 23.6243L13.9554 24.3856C14.6258 24.6537 15.3737 24.6537 16.0441 24.3856L17.9454 23.6243C19.0629 23.1773 20.3097 23.1773 21.4272 23.6243L23.3304 24.3856C24.0008 24.6537 24.7487 24.6537 25.4191 24.3856L28.7135 23.0674C28.8283 23.0186 28.9517 22.9932 29.0764 22.9927C29.2012 22.9922 29.3248 23.0166 29.44 23.0644C29.5552 23.1123 29.6597 23.1827 29.7474 23.2714C29.835 23.3602 29.9041 23.4656 29.9505 23.5814C29.9969 23.6971 30.0198 23.821 30.0177 23.9458C30.0156 24.0705 29.9887 24.1936 29.9384 24.3078C29.8882 24.422 29.8156 24.525 29.7251 24.6108C29.6345 24.6966 29.5277 24.7634 29.411 24.8074L26.1147 26.1255C24.9972 26.5726 23.7504 26.5726 22.6329 26.1255L20.7316 25.3643C20.0612 25.0962 19.3133 25.0962 18.6429 25.3643L16.7397 26.1255C15.6222 26.5726 14.3754 26.5726 13.2579 26.1255L11.3566 25.3643C10.6862 25.0962 9.9383 25.0962 9.26786 25.3643L7.36474 26.1255C6.24716 26.5726 5.00044 26.5726 3.88286 26.1255L0.588487 24.8074C0.357784 24.7149 0.173274 24.5345 0.0755274 24.306C-0.0222194 24.0774 -0.0252016 23.8194 0.0672367 23.5887Z" fill="#858585"/>
</g>
<defs>
<clipPath id="clip0_441_7051">
<rect width="30" height="30" fill="white" transform="translate(0 0.5)"/>
</clipPath>
</defs>
</svg>
