<svg width="30" height="31" viewBox="0 0 30 31" fill="none" xmlns="http://www.w3.org/2000/svg">
<g clip-path="url(#clip0_441_7048)">
<path d="M23.4375 4.25C22.1943 4.25 21.002 4.74386 20.1229 5.62294C19.2439 6.50202 18.75 7.6943 18.75 8.9375C18.75 9.18614 18.6512 9.4246 18.4754 9.60041C18.2996 9.77623 18.0611 9.875 17.8125 9.875C17.5639 9.875 17.3254 9.77623 17.1496 9.60041C16.9738 9.4246 16.875 9.18614 16.875 8.9375C16.875 7.63956 17.2599 6.37077 17.981 5.29157C18.7021 4.21238 19.727 3.37124 20.9261 2.87454C22.1253 2.37784 23.4448 2.24788 24.7178 2.5011C25.9908 2.75432 27.1601 3.37933 28.0779 4.29711C28.9957 5.2149 29.6207 6.38422 29.8739 7.65722C30.1271 8.93022 29.9972 10.2497 29.5005 11.4489C29.0038 12.648 28.1626 13.6729 27.0834 14.394C26.0042 15.1151 24.7354 15.5 23.4375 15.5H0.9375C0.68886 15.5 0.450403 15.4012 0.274587 15.2254C0.0987721 15.0496 0 14.8111 0 14.5625C0 14.3139 0.0987721 14.0754 0.274587 13.8996C0.450403 13.7238 0.68886 13.625 0.9375 13.625H23.4375C24.6807 13.625 25.873 13.1311 26.7521 12.2521C27.6311 11.373 28.125 10.1807 28.125 8.9375C28.125 7.6943 27.6311 6.50202 26.7521 5.62294C25.873 4.74386 24.6807 4.25 23.4375 4.25ZM10.3125 6.125C9.81522 6.125 9.33831 6.32255 8.98668 6.67418C8.63504 7.02581 8.4375 7.50272 8.4375 8C8.4375 8.24864 8.33873 8.4871 8.16291 8.66291C7.9871 8.83873 7.74864 8.9375 7.5 8.9375C7.25136 8.9375 7.0129 8.83873 6.83709 8.66291C6.66127 8.4871 6.5625 8.24864 6.5625 8C6.5625 7.25832 6.78243 6.5333 7.19449 5.91661C7.60654 5.29993 8.19221 4.81928 8.87744 4.53545C9.56266 4.25163 10.3167 4.17736 11.0441 4.32206C11.7715 4.46675 12.4397 4.82391 12.9642 5.34835C13.4886 5.8728 13.8458 6.54099 13.9904 7.26841C14.1351 7.99584 14.0609 8.74984 13.777 9.43507C13.4932 10.1203 13.0126 10.706 12.3959 11.118C11.7792 11.5301 11.0542 11.75 10.3125 11.75H0.9375C0.68886 11.75 0.450403 11.6512 0.274587 11.4754C0.0987721 11.2996 0 11.0611 0 10.8125C0 10.5639 0.0987721 10.3254 0.274587 10.1496C0.450403 9.97377 0.68886 9.875 0.9375 9.875H10.3125C10.8098 9.875 11.2867 9.67746 11.6383 9.32583C11.99 8.9742 12.1875 8.49728 12.1875 8C12.1875 7.50272 11.99 7.02581 11.6383 6.67418C11.2867 6.32255 10.8098 6.125 10.3125 6.125ZM0 18.3125C0 18.0639 0.0987721 17.8254 0.274587 17.6496C0.450403 17.4738 0.68886 17.375 0.9375 17.375H19.7663C20.8788 17.375 21.9663 17.7049 22.8913 18.323C23.8164 18.9411 24.5373 19.8196 24.9631 20.8474C25.3888 21.8752 25.5002 23.0062 25.2832 24.0974C25.0661 25.1885 24.5304 26.1908 23.7437 26.9775C22.9571 27.7641 21.9548 28.2999 20.8636 28.5169C19.7725 28.734 18.6415 28.6226 17.6137 28.1968C16.5858 27.7711 15.7073 27.0501 15.0892 26.1251C14.4712 25.2001 14.1412 24.1125 14.1412 23C14.1412 22.7514 14.24 22.5129 14.4158 22.3371C14.5917 22.1613 14.8301 22.0625 15.0787 22.0625C15.3274 22.0625 15.5658 22.1613 15.7417 22.3371C15.9175 22.5129 16.0163 22.7514 16.0163 23C16.0163 23.7417 16.2362 24.4667 16.6482 25.0834C17.0603 25.7001 17.646 26.1807 18.3312 26.4646C19.0164 26.7484 19.7704 26.8226 20.4978 26.6779C21.2253 26.5333 21.8935 26.1761 22.4179 25.6517C22.9423 25.1272 23.2995 24.459 23.4442 23.7316C23.5889 23.0042 23.5146 22.2502 23.2308 21.5649C22.947 20.8797 22.4663 20.294 21.8496 19.882C21.233 19.4699 20.5079 19.25 19.7663 19.25H0.9375C0.68886 19.25 0.450403 19.1512 0.274587 18.9754C0.0987721 18.7996 0 18.5611 0 18.3125Z" fill="#858585"/>
</g>
<defs>
<clipPath id="clip0_441_7048">
<rect width="30" height="30" fill="white" transform="translate(0 0.5)"/>
</clipPath>
</defs>
</svg>
